<svg xmlns="http://www.w3.org/2000/svg" width="512" height="512"><g transform="translate(0 -280.07)"><circle cx="256" cy="536.07" r="200" style="fill:#191636"/><path d="M346.54 555.05q0-2.991 1.69-4.552t4.162-1.56q2.472 0 4.032 1.69 1.69 1.69 1.69 4.032 0 2.47-1.56 4.031 2.211 4.032 7.804 5.853 5.592 1.69 10.795 1.69 8.453 0 13.786-4.812 5.332-4.942 5.332-11.315 0-6.242-5.332-11.185-5.203-5.072-14.176-5.072h-5.983q-1.56 0-2.471-.13-.78-.13-1.82-1.04-.911-1.04-.911-2.861 0-2.601 1.56-3.252 1.691-.65 7.804-1.04 7.803-.39 12.095-3.902 5.462-4.422 5.462-11.315 0-4.422-4.422-7.413-4.291-3.121-10.925-3.121-10.404 0-14.436 4.031 1.17 1.17 1.17 3.512 0 2.6-1.82 4.292-1.69 1.56-3.902 1.56-2.21 0-4.031-1.56-1.821-1.561-1.821-4.552 0-6.893 6.503-11.055 6.632-4.162 18.208-4.162 10.795 0 17.558 5.462 6.893 5.333 6.893 12.876 0 5.463-2.862 10.665-2.73 5.072-8.063 8.454 6.633 2.991 10.665 8.584 4.032 5.462 4.032 12.225 0 9.494-7.934 16.777-7.803 7.283-20.159 7.283-12.225 0-20.419-5.203-8.193-5.332-8.193-13.916z" style="fill:#36c" transform="translate(-31.599 -46.489) scale(1.1007)"/><path d="M138.13 441.08q0-.594.198-.99.198-.496.495-.892l.595-.594q.297-.198.693-.495l.495-.199 32.983-20.305q1.387-.792 2.278-.792 1.09 0 2.08.891.99.793.99 2.08 0 1.585-2.178 3.071l-29.715 18.324q.297.099 2.278 1.387l27.436 16.838q2.179 1.485 2.179 3.07 0 1.288-.99 2.18-.991.792-2.08.792-.892 0-2.279-.793l-32.983-20.305q-2.476-1.386-2.476-3.268z" style="fill:#c00" transform="matrix(.90576 0 0 1.3376 -25.368 -49.854)"/><path d="M-360.72-439.4q0-.594.198-.99.198-.496.495-.892l.595-.594q.297-.198.693-.495l.495-.199 32.983-20.305q1.387-.792 2.278-.792 1.09 0 2.08.891.99.793.99 2.08 0 1.585-2.178 3.071l-29.715 18.324q.297.1 2.278 1.387l27.436 16.838q2.179 1.485 2.179 3.07 0 1.288-.99 2.18-.991.792-2.08.792-.892 0-2.279-.793l-32.983-20.305q-2.476-1.386-2.476-3.268z" style="fill:#0c0" transform="matrix(-.90576 0 0 -1.3376 -26.891 -47.653)"/><path d="M534.24-192.81q0-.594.198-.99.198-.496.495-.892l.595-.594q.297-.198.693-.495l.495-.199 32.983-20.305q1.387-.792 2.278-.792 1.09 0 2.08.891.99.793.99 2.08 0 1.585-2.178 3.071l-29.715 18.324q.297.099 2.278 1.387l27.436 16.838q2.179 1.485 2.179 3.07 0 1.288-.99 2.18-.991.792-2.08.792-.892 0-2.279-.793l-32.983-20.305q-2.476-1.386-2.476-3.268z" style="fill:#fc0" transform="matrix(0 .90576 -1.3376 0 -40.42 -51.893)"/><path d="M376.87 438.57q0-.594.198-.99.198-.496.495-.892l.595-.594q.297-.198.693-.495l.495-.199 32.983-20.305q1.387-.792 2.278-.792 1.09 0 2.08.891.99.793.99 2.08 0 1.585-2.178 3.071l-29.715 18.324q.297.1 2.278 1.387l27.436 16.838q2.179 1.485 2.179 3.07 0 1.288-.99 2.18-.991.792-2.08.792-.892 0-2.279-.793l-32.983-20.305q-2.476-1.386-2.476-3.268z" style="fill:#0c0" transform="matrix(.90576 0 0 1.3376 -31.599 -46.489)"/><path d="M-795.28 151.92q0-6.925 2.02-13.273 2.116-6.348 5.001-10.58 2.982-4.232 6.252-7.406 3.27-3.174 5.675-4.617 2.5-1.443 3.463-1.443 1.635 0 2.308.962.673.866.673 1.732 0 .673-.288 1.25-.289.48-.674.77-.288.192-1.25.865-6.06 4.136-10.003 10.003-3.847 5.867-5.194 11.157-1.346 5.194-1.346 10.58 0 8.945 3.943 17.505 4.04 8.464 12.408 14.14 1.058.769 1.443.961.384.288.673.77.289.577.289 1.25 0 .865-.674 1.731-.673.962-2.308.962-1.924 0-6.54-3.751-4.521-3.655-8.08-8.657-7.79-11.157-7.79-24.91z" style="fill:#fc0" transform="matrix(0 -.81366 1.489 0 -25.368 -47.073)"/><path d="M651.84-151.32q0-6.925 2.02-13.273 2.116-6.348 5.001-10.58 2.982-4.232 6.252-7.406 3.27-3.174 5.675-4.617 2.5-1.443 3.463-1.443 1.635 0 2.308.962.673.866.673 1.732 0 .673-.288 1.25-.289.48-.674.77-.288.192-1.25.865-6.06 4.136-10.003 10.003-3.847 5.867-5.194 11.157-1.346 5.194-1.346 10.58 0 8.945 3.943 17.505 4.04 8.464 12.408 14.14 1.058.769 1.443.961.384.289.673.77.289.577.289 1.25 0 .865-.674 1.731-.673.962-2.308.962-1.924 0-6.54-3.751-4.521-3.655-8.08-8.657-7.79-11.157-7.79-24.91z" style="fill:#fc0" transform="matrix(0 .81366 -1.489 0 -25.368 -50.354)"/><path d="M161.28 527.77q0-2.338 1.753-4.188 1.754-1.85 4.383-1.85 2.435 0 4.189 1.752 1.85 1.753 1.85 4.286 0 2.338-1.753 4.286-1.656 1.85-4.286 1.85-2.435 0-4.285-1.753-1.851-1.85-1.851-4.383z" style="fill:#fc0" transform="translate(-25.368 -49.854) scale(1.1007)"/><path d="M463.85 469.28h-5.438l-16.374-12.375q-1.688-1.313-2.313-2.563-.563-1.25-.063-2.937.5-1.875 2.126-3 1.625-1.188 3.375-1.188 1.687 0 2.812.938 1.125.875 2.063 2.125z" style="fill:#fc0" transform="rotate(26.479 93.264 -78.838) scale(1.10068)"/></g></svg>
